<svg  viewBox="0 0 273 273" fill="none" xmlns="http://www.w3.org/2000/svg">
<g clip-path="url(#clip0_2_17)">

<mask id="mask0_2_17" style="mask-type:alpha" maskUnits="userSpaceOnUse" x="1" y="17" width="273" height="238">
<path d="M273.876 87.5837C272.868 68.7699 264.903 51.1023 251.444 37.8354C237.813 24.3997 220.026 17 201.362 17C173.587 17 153.455 38.9617 142.64 50.7612C140.971 52.5833 139.014 54.7178 137.652 56.0201C136.562 54.892 135.084 53.2097 133.725 51.6628C123.848 40.4121 103.293 17.0009 73.6442 17.0009C54.9802 17.0009 37.1944 24.4006 23.5638 37.8363C10.1037 51.1023 2.13632 68.769 1.12912 87.5837C0.126425 106.367 4.9305 122.71 16.7065 140.579C26.024 154.721 50.5913 182.335 76.4483 207.733C89.7666 220.815 102.025 231.902 111.896 239.794C127.927 252.61 134.066 254.253 137.623 254.253C140.958 254.253 147.265 252.758 163.449 239.83C173.298 231.963 185.513 220.894 198.776 207.82C224.401 182.559 248.879 154.907 258.302 140.576C266.228 128.522 275.16 111.606 273.876 87.5837Z" fill="black"/>
</mask>
<g mask="url(#mask0_2_17)">
<path fill-rule="evenodd" clip-rule="evenodd" d="M87 -1H180V272H87V-1Z" fill="white"/>
<path fill-rule="evenodd" clip-rule="evenodd" d="M-6 -1H87.0182V272.283H-6V-1Z" fill="#002654"/>
<path fill-rule="evenodd" clip-rule="evenodd" d="M179.982 -1H273V272.283H179.982V-1Z" fill="#CE1126"/>
</g>
</g>
<defs>
</defs>
</svg>